<?xml version="1.0" standalone="no"?>
<!DOCTYPE svg PUBLIC "-//W3C//DTD SVG 20010904//EN"
 "http://www.w3.org/TR/2001/REC-SVG-20010904/DTD/svg10.dtd">
<svg version="1.0" xmlns="http://www.w3.org/2000/svg"
 width="4725.000000pt" height="4725.000000pt" viewBox="0 0 4725.000000 4725.000000"
 preserveAspectRatio="xMidYMid meet">

<g transform="translate(0.000000,4725.000000) scale(0.100000,-0.100000)"
fill="#000000" stroke="none">
<path d="M23020 28653 c-111 -6 -339 -34 -480 -59 -1013 -174 -1837 -703
-2270 -1457 -246 -429 -364 -917 -347 -1437 30 -922 484 -1717 1278 -2239 80
-53 162 -104 180 -115 l34 -19 -140 -27 c-553 -110 -882 -285 -1014 -539 -56
-109 -74 -185 -74 -316 -1 -186 46 -309 157 -413 161 -150 385 -210 815 -219
l244 -6 -134 -47 c-585 -205 -1016 -548 -1243 -989 -251 -490 -246 -990 14
-1358 50 -71 166 -203 179 -203 4 0 33 37 64 83 181 266 464 506 775 658 69
33 151 78 182 99 138 94 311 284 550 606 200 268 349 452 453 556 253 254 547
453 771 520 l78 23 -6 100 c-8 131 -35 389 -45 434 -9 43 9 43 -223 -4 -595
-120 -916 -107 -1066 43 -56 56 -84 123 -90 215 -6 99 10 155 61 213 130 148
440 180 1196 124 74 -6 135 -9 137 -8 1 2 26 134 55 293 45 250 53 308 53 420
1 125 0 132 -30 195 -40 85 -79 128 -167 186 -40 26 -109 82 -154 124 -131
124 -203 146 -389 116 -127 -20 -350 -21 -469 -1 -437 71 -818 336 -1047 729
-98 167 -179 430 -182 589 -1 73 1 80 24 99 22 18 34 20 100 15 124 -10 495
-76 655 -117 275 -70 510 -171 710 -305 249 -166 405 -343 524 -596 27 -57 66
-124 87 -148 37 -43 289 -251 304 -251 22 0 28 45 36 260 15 399 9 470 -53
599 -31 64 -55 94 -177 216 -167 167 -175 171 -371 186 -367 28 -658 146 -917
373 -335 293 -522 766 -489 1236 10 136 34 168 114 156 65 -11 357 -130 552
-226 650 -320 983 -684 1106 -1210 24 -103 52 -153 121 -215 46 -42 107 -82
111 -73 1 2 0 104 -4 228 -7 304 -14 324 -194 560 -112 148 -196 343 -230 538
-21 116 -20 335 0 459 47 281 197 566 402 765 125 121 177 135 260 70 130
-104 294 -315 372 -483 84 -179 119 -323 128 -519 14 -323 -72 -593 -273 -855
-142 -187 -164 -258 -171 -557 -3 -115 -2 -208 2 -208 17 0 114 81 148 122 50
62 63 93 91 210 45 188 101 311 210 466 267 379 649 634 1326 887 131 50 168
54 194 26 40 -44 46 -354 11 -546 -62 -344 -259 -676 -519 -879 -229 -178
-448 -268 -751 -306 -245 -31 -390 -104 -581 -294 -132 -132 -142 -155 -126
-304 21 -189 24 -285 12 -392 -36 -337 -34 -338 164 -174 153 128 194 177 258
312 84 180 169 291 326 428 307 268 675 420 1258 518 340 57 381 58 402 11 38
-84 -27 -395 -123 -585 -208 -413 -607 -724 -1047 -816 -94 -19 -270 -23 -478
-10 -150 9 -217 -1 -325 -48 -134 -60 -298 -194 -367 -301 -87 -133 -101 -244
-82 -625 20 -383 12 -350 83 -350 85 0 358 27 499 50 534 87 1004 262 1402
525 316 208 625 521 824 835 72 114 198 372 245 506 195 547 222 1159 76 1729
-238 928 -960 1645 -1980 1963 -266 84 -446 120 -770 157 -188 21 -259 25
-490 23 -148 -1 -295 -3 -325 -5z"/>
<path d="M23234 27736 c-123 -127 -214 -409 -214 -661 0 -228 91 -506 207
-635 52 -57 82 -69 118 -46 58 38 176 256 214 396 84 308 23 666 -156 917 -71
102 -95 106 -169 29z"/>
<path d="M35996 27229 c-244 -40 -396 -230 -396 -494 0 -83 33 -208 73 -273
90 -150 263 -232 462 -219 289 18 465 208 465 502 0 332 -262 542 -604 484z"/>
<path d="M7190 27061 l0 -119 35 -22 c55 -34 159 -154 193 -223 66 -134 63
-38 60 -1603 l-3 -1419 -23 -64 c-41 -114 -144 -249 -229 -302 l-33 -21 0
-119 0 -119 415 0 415 0 0 119 c0 112 -1 120 -21 126 -35 11 -146 124 -188
190 -22 35 -50 92 -63 127 l-23 63 -2 1475 c-1 811 1 1471 3 1465 3 -5 350
-809 772 -1785 l768 -1775 135 -3 134 -2 795 1796 795 1796 3 -1444 c2 -1025
-1 -1463 -9 -1510 -22 -134 -124 -293 -238 -373 l-41 -28 0 -118 0 -119 705 0
705 0 0 119 0 119 -34 21 c-56 35 -149 142 -188 217 -72 136 -68 45 -68 1593
0 1536 -4 1444 62 1579 34 68 138 188 193 222 l35 22 0 119 0 119 -572 0 -573
0 -686 -1548 c-378 -851 -690 -1545 -695 -1542 -5 2 -307 697 -670 1545 l-662
1540 -601 3 -601 2 0 -119z"/>
<path d="M27993 27033 l-433 -145 0 -118 0 -119 44 -30 c63 -43 139 -133 180
-210 70 -135 67 -49 64 -1468 l-3 -1278 -22 -58 c-45 -118 -134 -234 -225
-295 l-38 -25 0 -118 0 -119 705 0 705 0 0 120 0 119 -42 30 c-92 63 -182 185
-221 300 l-22 66 -3 1748 -2 1747 -128 -1 -127 -1 -432 -145z"/>
<path d="M21485 26826 c-13 -10 -17 -27 -16 -77 6 -411 596 -969 1025 -969
137 0 145 40 45 245 -144 296 -401 515 -859 733 -178 85 -174 83 -195 68z"/>
<path d="M24955 26773 c-251 -116 -523 -301 -677 -461 -126 -130 -228 -295
-268 -429 -26 -86 30 -116 176 -95 324 47 686 319 859 645 78 146 123 324 96
376 -18 32 -52 25 -186 -36z"/>
<path d="M13552 26049 c-261 -25 -505 -101 -661 -207 -128 -87 -234 -236 -261
-369 -17 -80 -8 -214 20 -286 29 -77 112 -167 191 -206 135 -67 333 -79 522
-31 80 21 88 25 84 44 -31 130 -40 197 -41 301 -1 144 19 236 71 322 49 83 88
119 171 160 64 32 83 37 171 41 165 8 278 -34 374 -138 127 -137 190 -340 204
-657 l6 -143 -224 0 c-650 -1 -1103 -84 -1404 -258 -110 -63 -248 -202 -298
-299 -58 -112 -79 -206 -80 -353 -1 -262 85 -464 280 -651 226 -218 518 -323
893 -323 336 1 592 87 773 263 l57 55 0 -132 0 -132 560 0 560 0 0 119 0 118
-41 28 c-93 65 -192 203 -230 320 -9 30 -14 203 -19 685 -7 696 -8 706 -65
905 -159 549 -648 841 -1395 834 -74 -1 -172 -5 -218 -10z m848 -1759 c0 -404
-6 -455 -72 -590 -74 -153 -209 -263 -373 -305 -78 -20 -240 -19 -318 1 -152
39 -285 147 -349 284 -49 104 -63 167 -63 295 1 246 100 399 330 511 169 82
476 140 808 153 l37 1 0 -350z"/>
<path d="M17765 26053 c-368 -45 -655 -179 -875 -409 -41 -44 -87 -95 -102
-114 l-27 -35 -1 253 0 252 -122 0 -123 0 -437 -146 -438 -147 0 -123 0 -122
34 -21 c59 -37 152 -146 190 -223 66 -134 67 -144 64 -877 -3 -648 -4 -657
-25 -722 -39 -114 -129 -236 -220 -300 l-43 -30 0 -119 0 -120 705 0 705 0 0
119 0 118 -38 25 c-91 61 -180 177 -225 295 -21 57 -22 69 -25 618 -2 385 0
585 8 640 66 453 420 777 825 752 367 -23 557 -290 615 -866 5 -57 10 -313 10
-570 0 -513 -1 -528 -62 -649 -37 -74 -129 -178 -193 -219 l-45 -28 0 -117 0
-118 715 0 715 0 0 114 0 114 -66 48 c-104 76 -186 198 -220 327 -11 41 -14
175 -14 652 0 603 -7 762 -36 910 -83 413 -343 696 -735 799 -146 39 -374 56
-514 39z"/>
<path d="M30265 26050 c-439 -45 -761 -211 -876 -454 -39 -83 -52 -154 -47
-265 3 -82 8 -106 35 -163 73 -156 214 -235 433 -245 91 -4 135 -1 210 15 127
27 154 38 145 60 -40 103 -55 331 -31 452 50 244 200 370 442 370 265 0 440
-177 508 -515 17 -86 36 -275 36 -366 l0 -56 -317 -6 c-654 -12 -1051 -93
-1339 -272 -91 -57 -206 -170 -252 -247 -135 -228 -134 -543 4 -807 140 -271
420 -460 786 -533 146 -28 395 -31 538 -5 203 37 386 120 505 230 35 31 66 57
69 57 3 0 6 -56 6 -125 l0 -125 560 0 560 0 0 118 0 117 -61 45 c-88 64 -161
166 -205 285 -17 46 -19 102 -25 685 -6 684 -9 725 -64 915 -30 105 -96 248
-156 337 -62 91 -181 207 -282 273 -157 102 -330 165 -562 206 -138 24 -470
34 -620 19z m852 -1787 c-3 -318 -7 -387 -21 -438 -64 -223 -217 -377 -426
-431 -98 -25 -283 -16 -373 19 -217 84 -342 270 -354 527 -17 366 201 570 697
654 98 17 331 40 438 44 l44 2 -5 -377z"/>
<path d="M34236 26050 c-143 -23 -266 -66 -391 -139 -94 -54 -260 -213 -326
-311 l-44 -65 -3 233 -2 232 -118 1 -117 0 -442 -148 -443 -148 0 -117 0 -116
48 -35 c106 -79 184 -189 223 -313 l24 -79 0 -670 c0 -622 -1 -674 -18 -729
-41 -134 -127 -258 -226 -326 l-50 -35 -1 -117 0 -118 710 0 710 0 0 118 -1
117 -50 35 c-96 67 -182 189 -225 320 -15 48 -18 104 -22 439 -7 678 25 955
143 1249 147 363 419 512 614 336 55 -49 109 -147 130 -237 22 -92 30 -237 20
-355 -9 -98 -37 -268 -54 -323 -5 -13 10 -21 72 -38 319 -88 562 -54 717 101
109 109 156 241 156 441 0 392 -218 675 -596 773 -111 29 -331 40 -438 24z"/>
<path d="M38105 26050 c-217 -23 -388 -67 -535 -136 -274 -130 -410 -328 -398
-579 6 -120 33 -188 105 -265 64 -70 141 -112 250 -136 101 -22 265 -15 383
16 47 13 86 24 87 25 2 1 -6 42 -17 91 -30 133 -36 272 -17 373 32 167 106
275 233 337 68 34 84 38 177 42 164 7 274 -34 372 -140 123 -132 187 -341 202
-653 l6 -142 -319 -6 c-529 -10 -863 -60 -1137 -171 -298 -122 -466 -293 -534
-546 -25 -95 -23 -309 5 -412 103 -380 434 -655 884 -732 206 -36 423 -29 611
18 181 46 317 117 429 223 l58 56 0 -131 0 -132 560 0 560 0 0 119 0 119 -33
21 c-43 27 -136 124 -171 180 -15 24 -40 73 -54 110 l-27 66 -6 645 c-6 693
-8 721 -63 911 -99 340 -325 586 -659 718 -197 78 -385 111 -667 116 -113 2
-241 0 -285 -5z m842 -1792 c-3 -317 -7 -392 -20 -438 -65 -218 -219 -373
-422 -425 -78 -20 -240 -19 -319 1 -296 76 -468 382 -400 712 64 313 360 471
974 521 58 4 124 9 148 10 l43 1 -4 -382z"/>
<path d="M35823 25852 l-433 -147 0 -120 0 -120 45 -28 c94 -60 193 -200 229
-328 15 -50 16 -135 14 -755 l-3 -699 -24 -59 c-40 -99 -119 -205 -194 -261
l-67 -50 0 -117 0 -118 710 0 710 0 0 118 -1 117 -50 34 c-96 65 -180 185
-225 321 -18 52 -19 120 -22 1208 l-3 1152 -127 -1 -127 -1 -432 -146z"/>
<path d="M21110 25280 c-27 -27 -26 -33 16 -120 138 -289 378 -508 667 -609
171 -60 297 -76 545 -72 43 1 92 48 92 88 0 42 -26 76 -161 214 -186 189 -355
292 -635 389 -103 35 -461 130 -493 130 -6 0 -20 -9 -31 -20z"/>
<path d="M25385 25285 c-22 -7 -110 -32 -195 -55 -262 -70 -488 -165 -646
-270 -94 -62 -315 -284 -345 -346 -18 -39 -19 -45 -5 -77 8 -20 23 -40 34 -46
31 -17 274 -13 383 5 256 43 470 154 646 337 123 128 263 345 263 408 0 54
-53 72 -135 44z"/>
<path d="M25425 22823 c-301 -24 -641 -78 -1035 -164 -210 -46 -914 -221 -923
-229 -13 -12 -37 -343 -37 -521 l0 -165 58 -18 c244 -75 616 -347 860 -631 68
-80 290 -363 307 -392 0 -1 50 -9 110 -18 290 -42 567 -112 935 -235 212 -71
730 -263 779 -290 18 -9 28 2 100 111 196 295 323 622 378 969 25 163 25 534
-1 675 -100 547 -419 829 -1016 901 -102 12 -403 16 -515 7z"/>
<path d="M23026 21445 c-230 -93 -517 -327 -757 -615 -101 -121 -271 -354
-260 -358 24 -8 145 41 321 131 211 107 376 166 580 207 81 16 137 33 141 41
8 14 43 608 37 614 -2 2 -30 -7 -62 -20z"/>
<path d="M23448 21368 c2 -46 9 -177 16 -293 l11 -210 150 -7 c160 -7 345 -28
514 -59 58 -10 107 -19 109 -19 2 0 -13 21 -34 48 -187 233 -451 459 -665 572
-53 27 -98 50 -100 50 -2 0 -3 -37 -1 -82z"/>
<path d="M23490 20579 c0 -8 5 -81 10 -162 10 -135 13 -154 41 -210 90 -179
290 -372 468 -452 l44 -19 24 29 c38 46 185 271 235 360 94 167 168 314 161
318 -15 9 -230 57 -363 81 -173 31 -354 54 -502 62 -98 6 -118 5 -118 -7z"/>
<path d="M22885 20525 c-111 -29 -243 -75 -338 -119 l-72 -33 7 -159 c3 -87 6
-226 7 -308 1 -170 -10 -161 109 -94 140 80 265 194 349 318 63 94 71 117 77
250 4 69 9 135 12 148 4 19 0 22 -28 21 -18 0 -73 -11 -123 -24z"/>
<path d="M24923 20360 c9 -12 52 -62 97 -111 120 -131 225 -211 369 -280 199
-97 348 -194 492 -321 l67 -58 108 94 c117 101 261 243 253 250 -11 11 -616
231 -784 286 -180 58 -479 139 -574 155 -44 7 -44 7 -28 -15z"/>
<path d="M24557 20284 c-60 -122 -174 -316 -265 -454 -53 -80 -97 -148 -97
-153 0 -7 276 -149 281 -144 1 1 9 29 19 62 24 84 117 318 181 453 l53 113
-66 82 c-36 45 -68 85 -72 89 -4 5 -19 -17 -34 -48z"/>
<path d="M22240 20254 c-90 -35 -187 -59 -385 -95 l-120 -22 -62 -66 -62 -66
89 -42 c133 -62 331 -196 460 -310 l45 -40 72 35 73 36 0 176 c0 201 -10 431
-19 429 -3 -1 -44 -16 -91 -35z"/>
<path d="M24813 20013 c-6 -16 -38 -89 -71 -163 -57 -130 -142 -365 -142 -394
0 -7 39 -45 88 -83 93 -75 227 -204 287 -277 34 -42 38 -44 66 -34 70 24 387
187 527 271 l154 91 -44 38 c-95 83 -219 163 -378 243 -175 88 -277 157 -396
268 -40 37 -74 67 -76 67 -2 0 -9 -12 -15 -27z"/>
<path d="M21444 19859 c-56 -45 -171 -114 -232 -139 l-52 -22 -39 -123 c-74
-230 -121 -500 -121 -690 l0 -92 94 -26 c51 -15 133 -35 182 -46 92 -21 103
-18 104 21 0 32 59 189 95 256 119 217 275 370 512 503 l83 46 -63 50 c-111
90 -212 159 -306 207 -80 41 -190 86 -211 86 -4 0 -25 -14 -46 -31z"/>
<path d="M23407 19648 c-4 -100 -7 -253 -7 -341 l0 -160 29 24 c16 13 104 85
195 159 l165 135 -42 43 c-23 24 -108 106 -188 183 l-146 138 -6 -181z"/>
<path d="M23025 19723 c-283 -242 -312 -271 -385 -379 -38 -58 -70 -111 -70
-119 0 -32 454 -615 479 -615 12 0 17 12 19 48 1 26 11 169 22 317 16 226 36
826 28 825 -2 0 -43 -35 -93 -77z"/>
<path d="M20888 19529 c-111 -83 -287 -263 -370 -379 -37 -52 -68 -100 -68
-107 0 -12 279 -154 368 -187 l42 -16 0 58 c0 138 45 426 95 606 13 47 22 86
20 86 -2 0 -41 -28 -87 -61z"/>
<path d="M23725 19234 c-77 -63 -182 -153 -232 -200 l-93 -85 0 -127 c0 -70 3
-138 7 -151 6 -23 8 -23 77 -16 87 8 445 67 544 90 40 9 70 21 67 26 -3 5 -13
53 -21 106 -8 54 -21 125 -29 158 -28 109 -138 316 -168 314 -7 0 -75 -52
-152 -115z"/>
<path d="M22170 19259 c-146 -79 -313 -228 -361 -321 -19 -38 -79 -252 -79
-283 0 -9 35 -16 113 -24 61 -6 135 -14 162 -17 44 -4 51 -2 52 13 2 33 132
498 163 582 17 46 29 85 27 87 -1 2 -36 -15 -77 -37z"/>
<path d="M24274 19278 c10 -38 76 -387 76 -406 0 -30 15 -44 42 -37 24 6 24 7
15 78 -5 40 -6 127 -3 194 l6 121 -44 26 c-25 14 -56 30 -71 36 -26 10 -27 9
-21 -12z"/>
<path d="M24541 19040 c-1 -47 2 -101 5 -121 l6 -36 79 25 c43 15 79 29 79 33
0 4 -38 46 -85 95 l-84 89 0 -85z"/>
<path d="M22455 19009 c-44 -94 -72 -205 -81 -319 l-7 -90 242 0 c132 0 241 3
241 6 0 3 -37 53 -83 112 -45 59 -122 161 -171 227 -49 66 -92 124 -97 129 -5
5 -23 -22 -44 -65z"/>
</g>
</svg>
